<svg xmlns="http://www.w3.org/2000/svg" viewBox="0 0 1600 1000" role="img" aria-labelledby="title desc">
  <title id="title">Premium printing studio with signage and branding materials</title>
  <desc id="desc">Abstract showroom scene with large format prints, large format prints, LED signs, and brand panels.</desc>
  <defs>
    <linearGradient id="sky" x1="0" x2="1" y1="0" y2="1">
      <stop offset="0" stop-color="#F9FBFD"/>
      <stop offset="1" stop-color="#DDE8F1"/>
    </linearGradient>
    <linearGradient id="orange" x1="0" x2="1">
      <stop offset="0" stop-color="#C7D900"/>
      <stop offset="1" stop-color="#FFB15F"/>
    </linearGradient>
    <filter id="shadow" x="-20%" y="-20%" width="140%" height="140%">
      <feDropShadow dx="0" dy="24" stdDeviation="22" flood-color="#071923" flood-opacity=".2"/>
    </filter>
  </defs>
  <rect width="1600" height="1000" fill="url(#sky)"/>
  <rect x="0" y="690" width="1600" height="310" fill="#EBF0F5"/>
  <rect x="930" y="150" width="430" height="520" rx="18" fill="#fff" filter="url(#shadow)"/>
  <rect x="975" y="205" width="340" height="88" rx="10" fill="#071923"/>
  <rect x="975" y="325" width="160" height="230" rx="10" fill="url(#orange)"/>
  <rect x="1160" y="325" width="155" height="230" rx="10" fill="#CBD8E4"/>
  <circle cx="1240" cy="440" r="58" fill="#fff" opacity=".8"/>
  <rect x="250" y="405" width="560" height="265" rx="28" fill="#fff" filter="url(#shadow)"/>
  <path d="M305 612c90-106 181-125 273-57 55 41 109 53 162 37v78H305z" fill="url(#orange)"/>
  <path d="M325 455h420c30 0 54 24 54 54v25H271v-25c0-30 24-54 54-54z" fill="#071923"/>
  <circle cx="382" cy="690" r="58" fill="#172D42"/>
  <circle cx="382" cy="690" r="27" fill="#DDE8F1"/>
  <circle cx="686" cy="690" r="58" fill="#172D42"/>
  <circle cx="686" cy="690" r="27" fill="#DDE8F1"/>
  <rect x="600" y="185" width="230" height="150" rx="14" fill="#fff" filter="url(#shadow)"/>
  <rect x="630" y="220" width="170" height="30" rx="15" fill="#C7D900"/>
  <rect x="650" y="275" width="130" height="18" rx="9" fill="#071923"/>
  <rect x="880" y="735" width="320" height="46" rx="23" fill="#071923"/>
  <rect x="1210" y="735" width="150" height="46" rx="23" fill="#C7D900"/>
</svg>
