<svg xmlns="http://www.w3.org/2000/svg" viewBox="0 0 1600 700" role="img" aria-labelledby="title desc">
  <title id="title">Star Links Advertising production details</title>
  <desc id="desc">Abstract premium printing and signage production composition.</desc>
  <rect width="1600" height="700" fill="#071923"/>
  <path d="M0 520C260 430 356 590 560 478c201-110 276-320 536-242 172 52 266 38 504-68v532H0z" fill="#08A6C8"/>
  <path d="M0 600c238-96 440-36 604-92 186-64 249-223 472-182 150 28 313 13 524-96v470H0z" fill="#C7D900" opacity=".88"/>
  <rect x="970" y="120" width="360" height="250" rx="18" fill="#fff" opacity=".88"/>
  <rect x="1015" y="172" width="270" height="32" rx="16" fill="#071923"/>
  <rect x="1015" y="232" width="180" height="28" rx="14" fill="#C7D900"/>
  <rect x="1015" y="290" width="245" height="18" rx="9" fill="#CBD8E4"/>
</svg>
